<svg width="24" height="25" viewBox="0 0 24 25" fill="none" xmlns="http://www.w3.org/2000/svg">
<g clip-path="url(#clip0_248_3220)">
<path d="M18.7491 10.2096V9.50496C18.7491 5.63623 15.7274 2.5 12 2.5C8.27256 2.5 5.25087 5.63623 5.25087 9.50496V10.2096C5.25087 11.0552 5.00972 11.8818 4.5578 12.5854L3.45036 14.3095C2.43882 15.8843 3.21105 18.0249 4.97036 18.5229C9.57274 19.8257 14.4273 19.8257 19.0296 18.5229C20.789 18.0249 21.5612 15.8843 20.5496 14.3095L19.4422 12.5854C18.9903 11.8818 18.7491 11.0552 18.7491 10.2096Z" stroke="#FAFAFA" stroke-width="1.5"/>
<path d="M7.5 19.5C8.15503 21.2478 9.92246 22.5 12 22.5C14.0775 22.5 15.845 21.2478 16.5 19.5" stroke="#FAFAFA" stroke-width="1.5" stroke-linecap="round"/>
<rect x="13.3333" y="0.5" width="5.33333" height="5.33333" rx="2.66667" fill="#B3261E"/>
</g>
<defs>
<clipPath id="clip0_248_3220">
<rect y="0.5" width="24" height="24" rx="5" fill="white"/>
</clipPath>
</defs>
</svg>
