<svg width="24" height="26" viewBox="0 0 24 26" fill="none" xmlns="http://www.w3.org/2000/svg">
<path d="M10.0376 5.94496L10.6866 7.17249C11.2723 8.28028 11.0372 9.73351 10.1147 10.7072C10.1147 10.7072 8.99578 11.8883 11.0245 14.0298C13.0532 16.1712 14.1722 14.9901 14.1722 14.9901C15.0947 14.0164 16.4714 13.7682 17.5209 14.3865L18.6838 15.0715C20.2686 16.0051 20.4557 18.351 19.0628 19.8213C18.2258 20.7048 17.2004 21.3923 16.0669 21.4376C14.1588 21.514 10.9183 21.0043 7.6677 17.5731C4.41713 14.1419 3.93421 10.7214 4.00655 8.70726C4.04952 7.5108 4.7008 6.42847 5.53781 5.54496C6.93076 4.07463 9.15317 4.27218 10.0376 5.94496Z" stroke="#B3B3B3" stroke-width="1.5" stroke-linecap="round"/>
</svg>
