<svg width="24" height="24" viewBox="0 0 24 24" fill="none" xmlns="http://www.w3.org/2000/svg">
<path d="M2.1636 9.42226L11.2983 1.95917C11.3448 1.92116 11.4119 1.92116 11.4584 1.95917L20.4236 9.28376C20.5074 9.35218 20.4735 9.48882 20.3671 9.50985C19.229 9.73493 14.7976 10.768 12.4493 13.5867C9.76027 16.8143 9.6621 20.1411 9.67305 20.8341C9.67418 20.9064 9.61568 20.9651 9.54283 20.9651H2.24367C2.17408 20.9651 2.11768 20.9091 2.11768 20.8401V9.51882C2.11768 9.48144 2.13452 9.44601 2.1636 9.42226Z" stroke="#B3B3B3" stroke-width="1.5"/>
<path d="M21.0354 15.3108C21.0354 15.3108 18.0705 15.2494 16.4937 16.9704C15.0858 18.5071 15.106 20.9657 15.106 20.9657" stroke="#B3B3B3" stroke-width="1.5" stroke-linecap="round"/>
<path d="M21.8824 19.4482H19.4824V21.931H21.8824V19.4482Z" fill="#B3B3B3"/>
</svg>
