<svg width="23" height="26" viewBox="0 0 23 26" fill="none" xmlns="http://www.w3.org/2000/svg">
<path d="M21.0834 15.0813C21.0557 18.6376 20.874 20.5981 19.6846 21.8909C18.2808 23.4168 16.0214 23.4168 11.5026 23.4168C6.98378 23.4168 4.72437 23.4168 3.32056 21.8909C1.91675 20.3651 1.91675 17.9092 1.91675 12.9974C1.91675 8.0857 1.91675 5.62983 3.32056 4.10395C4.50999 2.81108 6.31365 2.61365 9.58541 2.5835" stroke="#B3B3B3" stroke-width="1.5" stroke-linecap="round"/>
<path d="M21.0833 7.79183H13.4167C11.6725 7.79183 10.6221 8.72339 10.2339 9.14792C10.1286 9.2631 10.076 9.32068 10.075 9.3217C10.0741 9.32271 10.0064 9.39589 9.87112 9.54226C9.47987 9.96546 8.625 11.1068 8.625 13.0002V16.1252M21.0833 7.79183L16.2917 2.5835M21.0833 7.79183L16.2917 13.0002" stroke="#B3B3B3" stroke-width="1.5" stroke-linecap="round" stroke-linejoin="round"/>
</svg>
