<svg width="23" height="25" viewBox="0 0 23 25" fill="none" xmlns="http://www.w3.org/2000/svg">
<g filter="url(#filter0_d_598_2821)">
<path d="M12.093 3.43541C14.1756 1.99012 15.2169 1.26748 16.0174 1.71533C16.8179 2.16318 16.8476 3.48493 16.9068 6.12841L16.9221 6.81232C16.9389 7.56351 16.9474 7.93911 17.0898 8.26349C17.2322 8.58787 17.4924 8.82432 18.013 9.2972L18.4869 9.72773C20.3187 11.3918 21.2346 12.2239 21.063 13.2088C20.8915 14.1938 19.7461 14.6793 17.4554 15.6504L16.8627 15.9017C16.2118 16.1776 15.8863 16.3156 15.6422 16.575C15.3981 16.8344 15.2631 17.1859 14.993 17.8889L14.7471 18.5288C13.7966 21.0026 13.3214 22.2395 12.4148 22.4004C11.5082 22.5612 10.7707 21.5396 9.29574 19.4963L8.91414 18.9676C8.49499 18.387 8.28542 18.0967 7.99216 17.9326C7.69891 17.7686 7.35518 17.7493 6.66771 17.7109L6.04183 17.6759C3.62261 17.5407 2.41299 17.4731 2.02425 16.5875C1.63551 15.702 2.32509 14.5851 3.70424 12.3511L4.06105 11.7732C4.45296 11.1384 4.64892 10.821 4.71176 10.4601C4.7746 10.0993 4.69721 9.73599 4.54242 9.00927L4.40151 8.34766C3.85682 5.79032 3.58448 4.51165 4.25078 3.80349C4.91709 3.09533 6.08077 3.42666 8.40813 4.08933L9.01025 4.26078C9.67161 4.44909 10.0023 4.54324 10.3344 4.48431C10.6665 4.42537 10.9624 4.22002 11.5542 3.80932L12.093 3.43541Z" stroke="#B3B3B3" stroke-width="1.5" shape-rendering="crispEdges"/>
</g>
<defs>
<filter id="filter0_d_598_2821" x="-2.8335" y="0.833008" width="28.6672" height="30.3345" filterUnits="userSpaceOnUse" color-interpolation-filters="sRGB">
<feFlood flood-opacity="0" result="BackgroundImageFix"/>
<feColorMatrix in="SourceAlpha" type="matrix" values="0 0 0 0 0 0 0 0 0 0 0 0 0 0 0 0 0 0 127 0" result="hardAlpha"/>
<feOffset dy="4"/>
<feGaussianBlur stdDeviation="2"/>
<feComposite in2="hardAlpha" operator="out"/>
<feColorMatrix type="matrix" values="0 0 0 0 0 0 0 0 0 0 0 0 0 0 0 0 0 0 0.25 0"/>
<feBlend mode="normal" in2="BackgroundImageFix" result="effect1_dropShadow_598_2821"/>
<feBlend mode="normal" in="SourceGraphic" in2="effect1_dropShadow_598_2821" result="shape"/>
</filter>
</defs>
</svg>
