<svg width="22" height="24" viewBox="0 0 22 24" fill="none" xmlns="http://www.w3.org/2000/svg">
<path d="M6.99975 14.7778H2.49976C1.83688 14.7772 1.2013 14.499 0.732574 14.0042C0.263848 13.5095 0.000285527 12.8386 -0.000244141 12.1389V2.63889C0.000285527 1.93918 0.263848 1.2683 0.732574 0.77353C1.2013 0.278764 1.83688 0.000559094 2.49976 0H11.4998C12.1626 0.000559094 12.7982 0.278764 13.2669 0.77353C13.7357 1.2683 13.9992 1.93918 13.9998 2.63889V7.38889H12.9998V2.63889C12.9992 2.21913 12.841 1.81673 12.5598 1.51992C12.2786 1.22311 11.8974 1.05611 11.4998 1.05556H2.49976C2.10209 1.05611 1.72087 1.22311 1.43968 1.51992C1.15849 1.81673 1.00028 2.21913 0.999756 2.63889V12.1389C1.00028 12.5586 1.15849 12.961 1.43968 13.2579C1.72087 13.5547 2.10209 13.7217 2.49976 13.7222H6.99975V14.7778ZM6.96175 9.6995C5.85039 10.6103 4.56577 11.257 3.19576 11.5953L2.95376 10.5714C4.142 10.2779 5.25958 9.72728 6.23575 8.95428C5.05219 7.63752 4.23919 5.99903 3.88776 4.22222H2.99976V3.16667H6.27875L5.73476 2.59244L6.44175 1.84617L7.69176 3.16667H10.9998V4.22222H10.0858C9.83736 5.4031 9.39538 6.52907 8.77975 7.54933C7.94468 8.00739 7.29729 8.77221 6.95975 9.6995H6.96175ZM6.99375 8.23967C8.01163 7.12091 8.72469 5.73299 9.05775 4.22222H4.92175C5.25771 5.73364 5.97349 7.12149 6.99375 8.23967ZM21.9998 20.5274V11.1393C22.0035 10.7876 21.9412 10.4386 21.8165 10.1124C21.6918 9.78628 21.5072 9.48938 21.2733 9.23888C21.0395 8.98837 20.7609 8.7892 20.4538 8.65285C20.1466 8.51651 19.817 8.44568 19.4838 8.44444H10.5528C9.8759 8.44528 9.227 8.72947 8.74839 9.23467C8.26978 9.73987 8.00055 10.4248 7.99975 11.1393V20.5274C8.00055 21.2418 8.26978 21.9268 8.74839 22.432C9.227 22.9372 9.8759 23.2214 10.5528 23.2222H19.4468C20.1236 23.2214 20.7725 22.9372 21.2511 22.432C21.7297 21.9268 21.999 21.2418 21.9998 20.5274ZM19.4838 9.5C19.8857 9.50028 20.2712 9.66896 20.5554 9.969C20.8397 10.269 20.9995 10.6759 20.9998 11.1002V20.5664C20.9995 20.9908 20.8397 21.3976 20.5554 21.6977C20.2712 21.9977 19.8857 22.1664 19.4838 22.1667H10.5158C10.1138 22.1664 9.72832 21.9977 9.44407 21.6977C9.15983 21.3976 9.00002 20.9908 8.99975 20.5664V11.1002C9.00002 10.6759 9.15983 10.269 9.44407 9.969C9.72832 9.66896 10.1138 9.50028 10.5158 9.5H19.4838ZM17.3978 17.9444H12.6018L11.4428 20.2983L10.5568 19.8128L14.9998 10.7825L19.4428 19.8128L18.5568 20.2983L17.3978 17.9444ZM16.8778 16.8889L14.9998 13.0731L13.1218 16.8889H16.8778Z" fill="#B3B3B3"/>
</svg>
